<?xml version="1.0" encoding="utf-8"?>
<!-- Generator: Adobe Illustrator 25.0.1, SVG Export Plug-In . SVG Version: 6.00 Build 0)  -->
<svg version="1.1" id="Layer_1" xmlns="http://www.w3.org/2000/svg" xmlns:xlink="http://www.w3.org/1999/xlink" x="0px" y="0px"
	 viewBox="0 0 298.56 108.05" style="enable-background:new 0 0 298.56 108.05;" xml:space="preserve">
<style type="text/css">
	.st0{fill:none;stroke:#3759C1;stroke-width:4;stroke-miterlimit:10;}
	.st1{fill:#3759C1;}
	.st2{fill:none;stroke:#3759C1;stroke-width:6;stroke-linejoin:round;stroke-miterlimit:10;}
</style>
<g>
	<g>
		<g>
			<g>
				<g>
					<g>
						<path class="st0" d="M51.81,98.59c1.43,0.99,3.33,0.94,4.7-0.12c11.68-9.03,63.05-50.86,48.75-77.83
							c-16.1-30.36-42.78-16.1-47.84-9.2c0,0-2.3,3.68-5.98,0S40.86,0.39,23.84,5S-1.14,26.47,3.14,40.16
							C7.68,54.69,19.12,76.03,51.81,98.59z"/>
						<path class="st1" d="M97.9,23.87c-0.11-5.27-1.47-2.45-3.8-3.24c-1.45-0.49-2.59-1.64-3.06-3.1
							c-0.96-3.03,2.44-4.48-4.41-4.48c-5.77,0-3.49,1.49-4.44,4.57c-0.44,1.41-1.54,2.52-2.94,2.98c-2.38,0.79-3.8-1.6-3.89,3.27
							s1.43,2.42,3.7,3.21c1.54,0.54,2.71,1.79,3.22,3.34c0.96,2.91-3.04,4.28,4.35,4.28c7.03,0,3.34-1.3,4.3-4.14
							c0.57-1.66,1.87-2.96,3.52-3.57C96.58,26.19,97.99,28.37,97.9,23.87z"/>
						<path class="st0" d="M240.41,100.43c1.43,0.99,3.33,0.94,4.7-0.12c11.68-9.03,63.74-47.84,48.75-77.83
							c-15.37-30.74-42.78-16.1-47.84-9.2c0,0-2.3,3.68-5.98,0s-10.58-11.04-27.6-6.44S189.62,33.39,191.74,42
							C195.4,56.78,207.73,77.87,240.41,100.43z"/>
						<polyline class="st2" points="99.57,54.15 125.95,54.15 139.53,11.21 161.15,105.05 175.28,50.65 193.6,50.65 						"/>
					</g>
				</g>
			</g>
		</g>
	</g>
	<path class="st1" d="M200.88,58.1c0,0,4.43,19.08,43,42c0,0,56.16-38.25,52.24-67.32c0,0-13.98-20.13-40.81,9.5
		C255.32,42.28,224.92,78.23,200.88,58.1z"/>
</g>
</svg>
