<?xml version="1.0" encoding="utf-8"?>
<!-- Generator: Adobe Illustrator 25.0.1, SVG Export Plug-In . SVG Version: 6.00 Build 0)  -->
<svg version="1.1" id="Layer_1" xmlns="http://www.w3.org/2000/svg" xmlns:xlink="http://www.w3.org/1999/xlink" x="0px" y="0px"
	 viewBox="0 0 1253.32 112.84" style="enable-background:new 0 0 1253.32 112.84;" xml:space="preserve">
<style type="text/css">
	.st0{fill:none;stroke:#28546c;stroke-width:4;stroke-miterlimit:10;}
	.st1{fill:#28546c;}
	.st2{fill:none;stroke:#28546c;stroke-width:6;stroke-linejoin:round;stroke-miterlimit:10;}
</style>
<g>
	<g>
		<g>
			<g>
				<g>
					<g>
						<path class="st0" d="M1006.58,98.59c1.43,0.99,3.33,0.94,4.7-0.12c11.68-9.03,63.05-50.86,48.75-77.83
							c-16.1-30.36-42.78-16.1-47.84-9.2c0,0-2.3,3.68-5.98,0c-3.68-3.68-10.58-11.04-27.6-6.44s-24.98,21.47-20.7,35.17
							C962.45,54.69,973.89,76.03,1006.58,98.59z"/>
						<path class="st1" d="M1052.67,23.87c-0.11-5.27-1.47-2.45-3.8-3.24c-1.45-0.49-2.59-1.64-3.06-3.1
							c-0.96-3.03,2.44-4.48-4.41-4.48c-5.77,0-3.49,1.49-4.44,4.57c-0.44,1.41-1.54,2.52-2.94,2.98c-2.38,0.79-3.8-1.6-3.89,3.27
							c-0.09,4.87,1.43,2.42,3.7,3.21c1.54,0.54,2.71,1.79,3.22,3.34c0.96,2.91-3.05,4.28,4.35,4.28c7.03,0,3.34-1.3,4.3-4.14
							c0.57-1.66,1.87-2.96,3.52-3.57C1051.34,26.19,1052.76,28.37,1052.67,23.87z"/>
						<path class="st0" d="M1195.18,100.43c1.43,0.99,3.33,0.94,4.7-0.12c11.68-9.03,63.74-47.84,48.75-77.83
							c-15.37-30.74-42.78-16.1-47.84-9.2c0,0-2.3,3.68-5.98,0c-3.68-3.68-10.58-11.04-27.6-6.44s-22.83,26.55-20.7,35.17
							C1150.16,56.78,1162.5,77.87,1195.18,100.43z"/>
						<polyline class="st2" points="1054.34,54.15 1080.72,54.15 1094.3,11.21 1115.92,105.05 1130.05,50.65 1148.37,50.65 						
							"/>
					</g>
				</g>
			</g>
			<g>
				<path class="st1" d="M43.47,48.16c0,11.64-6.97,21.64-20.55,21.64c-13.16,0-20-9.52-20-21.52c0-12.12,7.58-21.46,20.55-21.46
					C35.71,26.82,43.47,35.37,43.47,48.16z M12.25,48.1c0,8.18,3.58,14.37,10.97,14.37c8.06,0,10.91-6.73,10.91-14.19
					c0-7.94-3.27-14.12-11.03-14.12C15.52,34.16,12.25,39.98,12.25,48.1z"/>
				<path class="st1" d="M75.59,27.43h17.28c8.91,0,14.91,4.97,14.91,12.91c0,9.09-6.85,13.28-15.09,13.28h-8.06V69.2h-9.03V27.43z
					 M84.62,46.4h6.91c4.18,0,7.15-1.64,7.15-5.88c0-4.3-3.15-5.94-6.97-5.94h-7.09V46.4z"/>
				<path class="st1" d="M167.61,51.19H147.6V61.8h22.07l-1.09,7.4h-29.77V27.43h29.64v7.4H147.6v8.91h20.01V51.19z"/>
				<path class="st1" d="M200.34,69.2V27.43h11.22c5.21,9.34,14.85,26.31,16.79,30.86h0.12c-0.48-4.36-0.48-11.64-0.48-18.49V27.43
					h8.18V69.2h-10.61c-4.49-8.18-15.16-27.58-17.28-32.43h-0.12c0.3,3.64,0.42,12.25,0.42,19.7V69.2H200.34z"/>
				<path class="st1" d="M317.63,34.82H304.9v-7.4h34.43v7.4h-12.67V69.2h-9.03V34.82z"/>
				<path class="st1" d="M378,52.46V69.2h-8.85V27.43h18.37c9.09,0,14,4.97,14,11.46c0,5.58-3.03,8.61-6.06,9.88
					c2.06,0.79,5.21,2.91,5.21,10.43v2.06c0,2.79,0,6,0.61,7.94h-8.61c-0.73-1.82-0.85-4.97-0.85-9.4v-0.61
					c0-4.55-1.15-6.73-7.88-6.73H378z M378,45.25h7.58c4.91,0,6.85-1.88,6.85-5.33c0-3.4-2.24-5.33-6.67-5.33H378V45.25z"/>
				<path class="st1" d="M442.38,59.56l-3.21,9.64h-8.91l14.19-41.77h11.34l14.85,41.77h-9.52l-3.46-9.64H442.38z M455.71,52.16
					c-2.97-8.85-4.85-14.49-5.88-18.25h-0.06c-1.03,4.12-3.09,10.67-5.46,18.25H455.71z"/>
				<path class="st1" d="M500.2,69.2V27.43h11.21c5.21,9.34,14.85,26.31,16.79,30.86h0.12c-0.49-4.36-0.49-11.64-0.49-18.49V27.43
					h8.18V69.2h-10.61c-4.49-8.18-15.16-27.58-17.28-32.43h-0.12c0.3,3.64,0.42,12.25,0.42,19.7V69.2H500.2z"/>
				<path class="st1" d="M576.03,56.95c0.97,4.18,3.94,6.06,8.79,6.06s6.91-1.94,6.91-4.97c0-3.46-2-4.91-9.15-6.55
					c-11.4-2.67-14.19-6.85-14.19-12.49c0-7.27,5.46-12.19,15.34-12.19c11.09,0,15.52,5.94,16.13,12.06h-9.09
					c-0.49-2.61-1.88-5.4-7.28-5.4c-3.7,0-5.88,1.52-5.88,4.49c0,2.91,1.76,4.12,8.55,5.64c12.12,2.91,14.79,7.4,14.79,13.34
					c0,7.58-5.76,12.85-16.79,12.85c-10.61,0-16.25-5.21-17.22-12.85H576.03z"/>
				<path class="st1" d="M631.86,27.43h17.28c8.91,0,14.91,4.97,14.91,12.91c0,9.09-6.85,13.28-15.1,13.28h-8.06V69.2h-9.03V27.43z
					 M640.9,46.4h6.91c4.18,0,7.15-1.64,7.15-5.88c0-4.3-3.15-5.94-6.97-5.94h-7.09V46.4z"/>
				<path class="st1" d="M695.08,27.43h9.03V61.8h20.85l-1.03,7.4h-28.86V27.43z"/>
				<path class="st1" d="M764.73,59.56l-3.21,9.64h-8.91l14.19-41.77h11.34l14.85,41.77h-9.52l-3.46-9.64H764.73z M778.07,52.16
					c-2.97-8.85-4.85-14.49-5.88-18.25h-0.06c-1.03,4.12-3.09,10.67-5.46,18.25H778.07z"/>
				<path class="st1" d="M822.56,69.2V27.43h11.22c5.21,9.34,14.85,26.31,16.79,30.86h0.12c-0.49-4.36-0.49-11.64-0.49-18.49V27.43
					h8.18V69.2h-10.61c-4.49-8.18-15.16-27.58-17.28-32.43h-0.12c0.3,3.64,0.42,12.25,0.42,19.7V69.2H822.56z"/>
				<path class="st1" d="M901.54,34.82h-12.73v-7.4h34.43v7.4h-12.67V69.2h-9.03V34.82z"/>
			</g>
		</g>
	</g>
	<path class="st1" d="M1155.65,58.1c0,0,4.43,19.08,43,42c0,0,56.16-38.25,52.24-67.32c0,0-13.98-20.13-40.81,9.5
		C1210.08,42.28,1179.69,78.23,1155.65,58.1z"/>
</g>
</svg>
